<svg width="24" height="24" viewBox="0 0 24 24" fill="none" xmlns="http://www.w3.org/2000/svg">
<path d="M18 2.25H15.75V1.5C15.75 1.0875 15.4125 0.75 15 0.75H9C8.5875 0.75 8.25 1.0875 8.25 1.5V2.25H6C5.60248 2.25099 5.22152 2.40934 4.94043 2.69043C4.65934 2.97152 4.50099 3.35248 4.5 3.75V21.75C4.5 22.5746 5.17463 23.25 6 23.25H18C18.8246 23.25 19.5 22.5746 19.5 21.75V3.75C19.5 2.92462 18.8246 2.25 18 2.25ZM18.375 20.25C18.375 20.4529 18.2029 20.625 18 20.625H6C5.79638 20.625 5.625 20.4529 5.625 20.25V5.25C5.625 5.04637 5.79638 4.875 6 4.875H18C18.2029 4.875 18.375 5.04637 18.375 5.25V20.25Z" fill="#66CC9A"/>
<path d="M16.5 6.375H7.5C7.0875 6.375 6.75 6.7125 6.75 7.125V8.625C6.75 9.0375 7.0875 9.375 7.5 9.375H16.5C16.9125 9.375 17.25 9.0375 17.25 8.625V7.125C17.25 6.7125 16.9125 6.375 16.5 6.375ZM16.5 11.25H7.5C7.0875 11.25 6.75 11.5875 6.75 12V13.5C6.75 13.9125 7.0875 14.25 7.5 14.25H16.5C16.9125 14.25 17.25 13.9125 17.25 13.5V12C17.25 11.5875 16.9125 11.25 16.5 11.25ZM16.5 16.125H7.5C7.0875 16.125 6.75 16.4625 6.75 16.875V18.375C6.75 18.7875 7.0875 19.125 7.5 19.125H16.5C16.9125 19.125 17.25 18.7875 17.25 18.375V16.875C17.25 16.4625 16.9125 16.125 16.5 16.125Z" fill="#66CC9A"/>
</svg>
