<?xml version="1.0" encoding="UTF-8" standalone="no" ?>
<!DOCTYPE svg PUBLIC "-//W3C//DTD SVG 1.1//EN" "http://www.w3.org/Graphics/SVG/1.1/DTD/svg11.dtd">
<svg xmlns="http://www.w3.org/2000/svg" xmlns:xlink="http://www.w3.org/1999/xlink" version="1.1" width="1080" height="1080" viewBox="0 0 1080 1080" xml:space="preserve">
<desc>Created with Fabric.js 5.2.4</desc>
<defs>
</defs>
<g transform="matrix(1 0 0 1 540 540)" id="c9d5e35b-6c3a-48c2-8967-33a6413d334f"  >
<rect style="stroke: none; stroke-width: 1; stroke-dasharray: none; stroke-linecap: butt; stroke-dashoffset: 0; stroke-linejoin: miter; stroke-miterlimit: 4; fill: rgb(255,255,255); fill-rule: nonzero; opacity: 1; visibility: hidden;" vector-effect="non-scaling-stroke"  x="-540" y="-540" rx="0" ry="0" width="1080" height="1080" />
</g>
<g transform="matrix(1 0 0 1 540 540)" id="6db81546-68d5-4d7b-a811-0a9710b87376"  >
</g>
<g transform="matrix(1 0 0 1 540 540)" id="99c625a3-ffc9-400c-9fc4-394bcb638465"  >
<path style="stroke: rgb(0,0,0); stroke-width: 0; stroke-dasharray: none; stroke-linecap: butt; stroke-dashoffset: 0; stroke-linejoin: miter; stroke-miterlimit: 4; fill: rgb(127,218,51); fill-rule: nonzero; opacity: 1;" vector-effect="non-scaling-stroke"  transform=" translate(-512, -512)" d="M 237.248 192 L 352 192 C 369.6731119945854 192 384 177.67311199458538 384 160 C 384 142.32688800541462 369.6731119945854 128 352 128 L 160 128 C 142.32688800541462 128 128 142.32688800541462 128 160 L 128 352 C 128 369.6731119945854 142.32688800541462 384 160 384 C 177.67311199458538 384 192 369.6731119945854 192 352 L 192 237.248 L 329.36 374.608 C 337.39733489361436 382.9237205113076 349.2961997154955 386.25566820750475 360.48327521687435 383.3232116365148 C 371.6703507182532 380.3907550655249 380.40467607019724 371.65025049507926 383.3292202571426 360.46110391846776 C 386.253764444088 349.27195734185625 382.9134025434107 337.3754518939486 374.592 329.344 L 237.248 192 z M 832 237.248 L 832 352 C 832 369.6731119945854 846.3268880054146 384 864 384 C 881.6731119945854 384 896 369.6731119945854 896 352 L 896 160 C 896 142.32688800541462 881.6731119945854 128 864 128 L 672 128 C 654.3268880054146 128 640 142.32688800541462 640 160 C 640 177.67311199458538 654.3268880054146 192 672 192 L 786.752 192 L 649.3919999999999 329.36 C 641.0762794886923 337.39733489361436 637.7443317924951 349.2961997154955 640.6767883634851 360.48327521687435 C 643.6092449344751 371.6703507182532 652.3497495049207 380.40467607019724 663.5388960815321 383.3292202571426 C 674.7280426581437 386.253764444088 686.6245481060513 382.91340254341065 694.656 374.592 L 832 237.248 z M 237.248 832 L 352 832 C 369.6731119945854 832 384 846.3268880054146 384 864 C 384 881.6731119945854 369.6731119945854 896 352 896 L 160 896 C 142.32688800541462 896 128 881.6731119945854 128 864 L 128 672 C 128 654.3268880054146 142.32688800541462 640 160 640 C 177.67311199458538 640 192 654.3268880054146 192 672 L 192 786.752 L 329.36 649.3919999999999 C 337.39733489361436 641.0762794886923 349.2961997154955 637.7443317924951 360.48327521687435 640.6767883634851 C 371.6703507182532 643.6092449344751 380.4046760701972 652.3497495049206 383.3292202571426 663.5388960815321 C 386.253764444088 674.7280426581436 382.9134025434107 686.6245481060513 374.592 694.656 L 237.248 832 z M 832 786.752 L 832 672 C 832 654.3268880054146 846.3268880054146 640 864 640 C 881.6731119945854 640 896 654.3268880054146 896 672 L 896 864 C 896 881.6731119945854 881.6731119945854 896 864 896 L 672 896 C 654.3268880054146 896 640 881.6731119945854 640 864 C 640 846.3268880054146 654.3268880054146 832 672 832 L 786.752 832 L 649.3919999999999 694.64 C 641.0762794886923 686.6026651063856 637.7443317924951 674.7038002845045 640.6767883634851 663.5167247831257 C 643.6092449344751 652.3296492817468 652.3497495049206 643.5953239298028 663.5388960815321 640.6707797428573 C 674.7280426581436 637.746235555912 686.6245481060513 641.0865974565893 694.656 649.408 L 832 786.752 z" stroke-linecap="round" />
</g>
</svg>