<svg width="28" height="28" viewBox="0 0 28 28" fill="none" xmlns="http://www.w3.org/2000/svg">
<path d="M14.3255 10.3052L14 10.6307L13.6745 10.3052C13.3766 10.0036 13.0218 9.76414 12.6307 9.60071C12.2395 9.43728 11.8199 9.35313 11.396 9.35313C10.9721 9.35313 10.5524 9.43728 10.1612 9.60071C9.77012 9.76414 9.41533 10.0036 9.11745 10.3052C8.81568 10.6031 8.57608 10.958 8.41254 11.3492C8.24901 11.7404 8.16479 12.1602 8.16479 12.5843C8.16479 13.0083 8.24901 13.4281 8.41254 13.8194C8.57608 14.2106 8.81568 14.5655 9.11745 14.8634L14 19.747L18.8836 14.8634C19.1854 14.5655 19.425 14.2106 19.5885 13.8194C19.7521 13.4281 19.8363 13.0083 19.8363 12.5843C19.8363 12.1602 19.7521 11.7404 19.5885 11.3492C19.425 10.958 19.1854 10.6031 18.8836 10.3052C18.5856 10.0036 18.2308 9.76408 17.8395 9.60064C17.4483 9.43719 17.0285 9.35303 16.6045 9.35303C16.1805 9.35303 15.7608 9.43719 15.3695 9.60064C14.9783 9.76408 14.6234 10.0036 14.3255 10.3052Z" fill="#66CC9A"/>
<path d="M13.9999 2.3335C7.56692 2.3335 2.33325 7.56716 2.33325 14.0002C2.33325 20.4332 7.56692 25.6668 13.9999 25.6668C20.4329 25.6668 25.6666 20.4332 25.6666 14.0002C25.6666 7.56716 20.4329 2.3335 13.9999 2.3335ZM13.9999 23.3335C8.85375 23.3335 4.66659 19.1463 4.66659 14.0002C4.66659 8.854 8.85375 4.66683 13.9999 4.66683C19.1461 4.66683 23.3333 8.854 23.3333 14.0002C23.3333 19.1463 19.1461 23.3335 13.9999 23.3335Z" fill="#66CC9A"/>
</svg>
