<svg xmlns="http://www.w3.org/2000/svg" viewBox="0 0 48 60" x="0px" y="0px"><g><path d="M24,46A22,22,0,1,1,46,24,22.02489,22.02489,0,0,1,24,46ZM24,4A20,20,0,1,0,44,24,20.0226,20.0226,0,0,0,24,4ZM35.34473,30.51758A11.98648,11.98648,0,0,1,22.19434,12.09814a1.00623,1.00623,0,0,0-1.09571-1.53662A13.99541,13.99541,0,1,0,36.44043,32.0542,1.00612,1.00612,0,0,0,35.34473,30.51758ZM25,36a11.99326,11.99326,0,0,1-5.897-22.44043c-4.16162,9.27985,3.69989,20.34015,13.85791,19.40625A12.00186,12.00186,0,0,1,25,36ZM22.69434,16.87744l2.2163,1.21192,1.21192,2.2163a1.00714,1.00714,0,0,0,1.75488,0l1.21192-2.2163,2.2163-1.21192a1.00714,1.00714,0,0,0,0-1.75488l-2.2163-1.21192-1.21192-2.2163a1.04057,1.04057,0,0,0-1.75488,0l-1.21192,2.2163-2.2163,1.21192A1.00716,1.00716,0,0,0,22.69434,16.87744Zm3.4331-1.35254a1.004,1.004,0,0,0,.39746-.39746L27,14.2583l.4751.86914a1.004,1.004,0,0,0,.39746.39746L28.7417,16l-.86914.4751a1.004,1.004,0,0,0-.39746.39746L27,17.7417l-.4751-.86914a1.004,1.004,0,0,0-.39746-.39746L25.2583,16Zm3.99512,5.16944-1.21192,2.2163-2.2163,1.21192a1.00716,1.00716,0,0,0,0,1.75488l2.2163,1.21192,1.21192,2.2163a1.00714,1.00714,0,0,0,1.75488,0l1.21192-2.2163,2.2163-1.21192a1.00714,1.00714,0,0,0,0-1.75488l-2.2163-1.21192-1.21192-2.2163A1.04057,1.04057,0,0,0,30.12256,20.69434ZM32.7417,25l-.86914.4751a1.004,1.004,0,0,0-.39746.39746L31,26.7417l-.4751-.86914a1.004,1.004,0,0,0-.39746-.39746L29.2583,25l.86914-.4751a1.004,1.004,0,0,0,.39746-.39746L31,23.2583l.4751.86914a1.004,1.004,0,0,0,.39746.39746Z"/></g></svg>
