<svg xmlns="http://www.w3.org/2000/svg" viewBox="0 0 48 60" x="0px" y="0px"><g><path d="M26.12744,16.4751,25.2583,16l.86914-.4751a1.004,1.004,0,0,0,.39746-.39746L27,14.2583l.4751.86914a1.004,1.004,0,0,0,.39746.39746L28.7417,16l-.86914.4751a1.004,1.004,0,0,0-.39746.39746L27,17.7417l-.4751-.86914A1.004,1.004,0,0,0,26.12744,16.4751Zm5.34766,7.65234L31,23.2583l-.4751.86914a1.004,1.004,0,0,1-.39746.39746L29.2583,25l.86914.4751a1.004,1.004,0,0,1,.39746.39746L31,26.7417l.4751-.86914a1.004,1.004,0,0,1,.39746-.39746L32.7417,25l-.86914-.4751A1.004,1.004,0,0,1,31.4751,24.12744ZM46,24A22,22,0,1,1,24,2,22.02489,22.02489,0,0,1,46,24ZM31.87744,20.69434a1.04057,1.04057,0,0,0-1.75488,0l-1.21192,2.2163-2.2163,1.21192a1.00716,1.00716,0,0,0,0,1.75488l2.2163,1.21192,1.21192,2.2163a1.00714,1.00714,0,0,0,1.75488,0l1.21192-2.2163,2.2163-1.21192a1.00714,1.00714,0,0,0,0-1.75488l-2.2163-1.21192Zm-9.1831-3.8169,2.2163,1.21192,1.21192,2.2163a1.00714,1.00714,0,0,0,1.75488,0l1.21192-2.2163,2.2163-1.21192a1.00714,1.00714,0,0,0,0-1.75488l-2.2163-1.21192-1.21192-2.2163a1.04057,1.04057,0,0,0-1.75488,0l-1.21192,2.2163-2.2163,1.21192A1.00716,1.00716,0,0,0,22.69434,16.87744ZM35.34473,30.51758A11.98648,11.98648,0,0,1,22.19434,12.09814a1.00623,1.00623,0,0,0-1.09571-1.53662A13.99541,13.99541,0,1,0,36.44043,32.0542,1.00612,1.00612,0,0,0,35.34473,30.51758ZM19.103,13.55957A11.99192,11.99192,0,1,0,32.96094,32.96582C22.80292,33.89972,14.94141,22.83942,19.103,13.55957Z"/></g></svg>
