<svg width="48" height="48" viewBox="0 0 48 48" fill="none" xmlns="http://www.w3.org/2000/svg">
<path d="M24 31.5C30.2033 31.5 35.25 25.1077 35.25 17.25C35.25 9.39225 30.2033 3 24 3C17.7968 3 12.75 9.39225 12.75 17.25C12.75 25.1077 17.7968 31.5 24 31.5ZM24 6C28.4722 6 32.25 11.1518 32.25 17.25C32.25 23.3482 28.4722 28.5 24 28.5C19.5278 28.5 15.75 23.3482 15.75 17.25C15.75 11.1518 19.5278 6 24 6Z" fill="#66CC9A"/>
<path d="M3.07712 34.0253L0.0771237 43.0253C-0.0751263 43.4828 0.00137373 43.9853 0.283374 44.3768C0.564624 44.7683 1.01762 45.0001 1.49987 45.0001H46.4999C46.9821 45.0001 47.4351 44.7683 47.7164 44.3768C47.9984 43.9861 48.0756 43.4836 47.9226 43.0253L44.9226 34.0253C44.7659 33.5558 44.3879 33.1943 43.9116 33.0578L33.4116 30.0578C33.0501 29.9536 32.6646 29.9903 32.3286 30.1583L23.9999 34.3231L15.6711 30.1583C15.3351 29.9903 14.9496 29.9543 14.5881 30.0578L4.08812 33.0578C3.61112 33.1943 3.23387 33.5558 3.07712 34.0253ZM14.8514 33.1028L23.3294 37.3418C23.7509 37.5526 24.2496 37.5526 24.6711 37.3418L33.1491 33.1028L42.3276 35.7248L44.4194 42.0001H3.58037L5.67212 35.7248L14.8514 33.1028Z" fill="#66CC9A"/>
</svg>
