<svg width="24" height="24" viewBox="0 0 24 24" fill="none" xmlns="http://www.w3.org/2000/svg">
<path d="M6.0777 0.993211L1.77832 3.73971C1.94426 4.9962 2.19621 6.24973 2.53427 7.49562L11.2838 1.85599L10.38 1.27005C8.91373 1.22857 7.46416 1.13688 6.0777 0.993211ZM17.9591 1.02251C16.0602 1.20884 14.0452 1.30085 12.0308 1.2964L21.6226 7.51765C21.9558 6.30406 22.2079 5.0839 22.3771 3.8599L17.9591 1.02251ZM12.0909 2.37893L2.78763 8.37452C3.1638 9.60827 3.62505 10.8334 4.17195 12.0454L15.5743 4.6392L12.0909 2.37893ZM16.3784 5.16068L12.8833 7.43116L19.9746 12.0616C20.5237 10.8521 20.9867 9.62829 21.3662 8.39655L16.3784 5.16077V5.16068ZM12.0806 7.95265L4.54695 12.8467C5.11891 14.0265 5.77226 15.1934 6.50838 16.3418L15.7003 10.317L12.0806 7.9526V7.95265ZM16.5001 10.8385L12.8659 13.2217L17.6192 16.3711C18.3609 15.218 19.0205 14.0469 19.5983 12.8614L16.5001 10.8385ZM12.069 13.7432L6.9903 17.0727C7.62612 18.0131 8.31809 18.9406 9.06593 19.853L15.2549 15.8555L12.0689 13.7432H12.069ZM16.0518 16.3828L12.8673 18.4409L15.0718 19.8648C15.8145 18.9581 16.5021 18.037 17.1358 17.1021L16.0518 16.3828ZM12.0689 18.9551L9.63288 20.5299C10.3938 21.4174 11.2085 22.2896 12.0777 23.1446C12.9395 22.2937 13.7482 21.4253 14.5049 20.5416L12.0631 18.9654L12.0689 18.9551V18.9551Z" fill="#66CC9A"/>
</svg>
