<svg xmlns="http://www.w3.org/2000/svg" width="64" height="64"><defs><linearGradient id="prefix__a" gradientUnits="userSpaceOnUse" x1="-45.943" y1="642.782" x2="1069.718" y2="380.889"><stop offset="0" stop-color="#2D9823"/><stop offset="1" stop-color="#16CBAA"/></linearGradient></defs><path fill="url(#prefix__a)" transform="scale(.0625)" d="M0 183.916V0h1024v1024H0V183.916z"/><path d="M17.903 7.144l.245.445a.46.46 0 01-.182.043 1.208 1.208 0 00-.176-.378l.113-.11z"/><path fill="#779B75" d="M20.91 7.609l.048.025c.209.1.49.001.696.14l-.076.023-.016.047-.035.018c-.052.031-.1.075-.114.135l-.007.034c-.043.153-.222.262-.356.34l-.342-.167.086-.063c.134-.125.109-.36.117-.532z"/><path d="M15.598 7.11c.193-.273.507-.476.84-.534.38-.065.873.045 1.18.28.107.081.2.185.285.288l-.113.11c-.36-.347-.665-.546-1.18-.538-.28.005-.6.172-.796.369l-.206.254.002-.03c.005-.059.009-.1.053-.145.07-.07.147-.19.228-.242.07-.045.147-.077.218-.125-.174-.05-.327.253-.475.305l-.036.008zM60.935 23.748l.213-.04c.11-.165.222-.45.437-.498a.412.412 0 01.31.062c.091.06.176.184.197.29.03.151.007.256-.086.377l-.061.075c-.294-.254-.64-.273-1.01-.266z"/><path fill="#779B75" d="M22.485 7.754c.067-.005.174-.023.236.004.076.031.208.17.24.247.04.102.03.18-.021.276-.076.14-.216.214-.362.254a.82.82 0 01-.365-.075c-.223-.103-.107-.202-.177-.375l-.012-.023c.007-.052.016-.103.016-.156V7.88l.445-.127z"/><path d="M15.598 7.11l.036-.008c.148-.052.3-.355.475-.305-.07.048-.149.08-.218.125-.081.053-.158.171-.228.242-.044.045-.048.086-.053.145l-.002.03c-.153.418-.214.77-.02 1.185.144.31.384.612.719.723.302.099.683.082.964-.07.31-.167.583-.495.675-.833l.058-.267c.028-.122.047-.222.123-.324l.049.008.041.244c.011.064.028.096.07.146a.396.396 0 00-.062.17c-.072.388-.433.801-.748 1.02-.161.113-.356.212-.542.275-.005.517.044 1.095-.024 1.604-.077-.355-.02-.832-.02-1.2 0-.101.024-.266-.031-.348h-.126c-.108.02-.195.03-.307.031a.587.587 0 01-.037.29l-.012.028-.03-.465a1.8 1.8 0 01-.466-.283 1.893 1.893 0 01-.6-1.272c-.012-.324.096-.65.316-.891z"/><path d="M18.148 7.589c.121.082.422.05.574.05l1.456.009c.227-.01.516-.081.733-.04-.008.173.017.408-.117.533l-.086.063c-.313-.078-.672-.047-.993-.047l-1.429-.006a.266.266 0 01-.069-.146l-.041-.244-.05-.008c-.075.102-.094.202-.122.324l-.038-.445a.46.46 0 00.182-.043zM44.457 55.985a.357.357 0 01.184 0c.118.023.256-.038.359.03.09 0 .14.013.219-.03.066-.037.13-.033.203-.032l.047.032c.095 0 .263-.027.336.03l.039-.03c.085.003.153.005.234.03.167.054.37.034.544.035.46.002.954-.037 1.411.016l-2.769.017c-.07.065-.152.125-.191.214-.024.054-.066.107-.048.164l-.04.039-.003.042c-.006.074 0 .028-.018.086-.03.1-.014.245-.014.352-.002.366.048.815-.01 1.17l-.027.011-.366-.06c-.502-.1-1.078.07-1.565-.063l1.392-.003.003-1.187c.001-.248-.014-.507.02-.753l.005-.03.055-.08z"/><path fill="#76A3E4" d="M44.913 58.161c-.007-.218-.034-2.035.006-2.087l.345.01c-.07.064-.152.124-.191.213-.024.054-.066.107-.048.164l-.04.039-.003.042c-.006.074 0 .028-.018.086-.03.1-.014.245-.014.352-.002.366.048.815-.01 1.17l-.027.011z"/><path fill="#FF9292" d="M0 52.445c.17-.101.474-.058.672-.055-.075-.075-.062-.078-.062-.187l.046-.031v-.04l.024-.038c-.004-.079-.022-.12.023-.188v-.078l.047-.023.04-.024.015-.117-.07.008c-.05-.073-.002-.103-.047-.164l.054-.031.055.023.039-.023.031.015.03-.023.22-.149.031.016.04-.07c.05 0 .02-.002.085.007l.032-.015c.053.034.111.064.156.11l-.055.023v.046H1.36c-.037.007-.043.014-.07.032l-.031-.024-.031.047c.04.012.074.024.117.024l.006.043c.01.063.016.096.048.15a.27.27 0 01.04.12c.04 0 .022.005.054-.016l.04.03.046-.046.07.07.032-.023.039.031.047-.015.046.093.063.016.016.062h.046l.047.047-.078.063.016.031.031-.004c.089-.01.15.016.227-.035l.304.008.04.039.038-.04.047.032v.047l.008.054c-.077.077-.154.088-.263.087h-.057l-.016.03 7.715.034.026.033L0 52.468v-.023z"/><defs><linearGradient id="prefix__b" gradientUnits="userSpaceOnUse" x1="309.687" y1="76.02" x2="312.677" y2="105.261"><stop offset="0"/><stop offset="1"/></linearGradient></defs><path fill="url(#prefix__b)" transform="scale(.0625)" d="M413.571 95.403c-9.428-.485-19.161.07-28.625.09l-60.771.04-60.094-.06-25.291.03c-4.481.012-9.205-.263-13.66.12-2.519.218-4.897.955-7.38 1.24-1.891.218-4.021-.036-5.538-1.28-1.098-.902-1.979-2.13-2.09-3.583-.099-1.284.275-2.775 1.128-3.745 1.342-1.526 4.508-2.575 6.494-2.562 1.88.012 3.732 1.157 5.629 1.396 3.699.465 7.611.338 11.337.367l35.29.01 65.379-.002 40.396.004c6.678.01 14.21-.583 20.771.458L317 88.745c-.853-.845-2.315-.498-3.5-.5-1.253.835-3.463.5-5 .5l-.745-.495-9.255-.127c-3.894.314-7.875-.21-11.75.122-1.116.096-1.732.36-2.426 1.285l-.327.468-.747.002-.005.75-.745.495-.625-.62-.5.373-.5-.373c-1.748.25-3.607.128-5.375.12l-.5-.495-.75-.005-.375-.62-.625.62-.75-.745-.625.498-.875-.876-3 .123-.745-.495c-.724.71-.792.495-1.755.495-1.018-.676-1.316-.497-2.5-.5l-.5-.495-1.75-.005-.875.252-.375-.247c-2.08-.088-5.24-.597-7.211.06l-.414.188c-.952-.629-4.041-.253-5.334-.249-.719.35-1.204.778-2.01.689-1.06-.118-1.857-.24-2.786.312l-.495 1.495-.505-.495-.529.435c-1.09.872-2.001 1.342-3.216 1.938-.728.356-.56.246-.877.877l.127.755c1.535 0 5.513-.487 6.5.5 1.791-.001 8.236.504 9.25-.5l20.488-.011c3.389-.001 7.175-.36 10.512.133 2.291.34 5.146-.015 7.48-.095l11.558-.031c1.154.001 2.38-.328 3.212.504 1.062-.003 1.466.276 2.25-.5h18.882c1.853 0 5.653-.477 7.118.5l3.578.2c2.179.213 5.743.068 7.922-.205l.5-.495c2.189-.03 4.582-.234 6.75 0 .887.096 1.58.52 2.513.54 7.589.163 56.643-.658 58.808.608z"/><path d="M44.94 58.15c.003.11.02.252-.026.353-.027.06-.05.075-.117.09-.13.03-.338.003-.475.001h-1.024l-5.13-.032a.308.308 0 01-.133-.034c-.065-.17.01-.38.048-.553.46.051.956.016 1.42.023l3.479.04c.487.132 1.063-.037 1.565.062l.366.061.028-.01z"/><path fill="#61E67B" d="M15.608 7.339l.206-.254c.197-.197.516-.364.796-.369.515-.008.82.19 1.18.538.085.126.136.232.176.378l.038.445-.058.267a1.431 1.431 0 01-.675.833 1.285 1.285 0 01-.964.07c-.335-.11-.575-.412-.72-.723-.193-.415-.132-.767.02-1.185z"/><path d="M38.805 3.988c-.2-.03-.457-.252-.58-.41a1.462 1.462 0 01-.273-1.074c.056-.334.292-.626.569-.81.409-.272.885-.274 1.35-.184l.474.434c.209.322.274.688.345 1.06-.036.17-.093.315-.237.423l-.034.019c-.273.347-.505.557-.96.62l-.037.005c-.214.004-.409-.039-.617-.083z"/><path d="M40.69 3.004l.031.037c.093.102.296.162.42.224.485.245.764.72.764 1.255l-.008 2.604.008 1.13c0 .171.018.357-.003.527a.555.555 0 01-.167.316.339.339 0 01-.162.085c-.138.025-.305.008-.446.008l-.89-.016-1.125.01c-.068-.072-.278-.251-.306-.337-.02-.06.001-.221.002-.29V7.75l-.011-2.584c-.001-.353-.027-.721-.01-1.072.003-.037.01-.07.018-.106.208.044.403.087.617.083l-.094.03c-.054.142-.02.4-.019.554l.024 1.564.002 2.373 2.033.024.038-2.845c0-.514.083-1.231-.13-1.704-.158-.349-.52-.493-.857-.621l.034-.019c.144-.108.201-.253.237-.423z"/><path d="M39.87 1.51l2.013-.013c.265 0 .586-.031.843.017.143.027.276.11.381.208.07.065.117.14.173.216l.037.048c.071.127.02 9.744.026 10.985a3.18 3.18 0 01-.554 0l.044-4.665-.011-2.92.005-1.865c.005-.392.04-.81.006-1.2a.338.338 0 00-.077-.213.395.395 0 00-.203-.128c-.194-.04-.442-.014-.64-.017l-1.568-.019-.474-.434z"/><path fill="#76A3E4" d="M40.419 3.446c.336.128.7.272.857.621.213.473.13 1.19.13 1.704l-.038 2.845-2.033-.024-.002-2.373-.024-1.564c0-.154-.035-.412.02-.553l.093-.031.038-.005c.454-.063.686-.273.959-.62z"/><path d="M16.378 10.021l.012-.028a.587.587 0 00.037-.29c.112-.002.2-.01.307-.031h.126c.055.082.03.247.03.348.001.368-.056.845.021 1.2l.02 9.34c.218.025.556.095.739-.056.085-.07.108-.156.113-.262l.024-1.07c-.004-.47-.025-.917.17-1.358.133-.3.36-.56.598-.78.22-.202.538-.41.826-.49.44-.12.98-.06 1.435-.051l1.733.02c.403.004.81.026 1.212-.01.028-.003.11-.01.133-.023.2-.103.48-.868.649-1.09a1.33 1.33 0 01.662-.458c.306-.094.701-.084 1.02-.066l.031.003c.003.246.027.514.002.758l-.036-.283c-.08-.047-.174-.027-.264-.022l-.67.032c-.138.121-.298.245-.403.398-.182.268-.228.605-.4.864-.104.155-.307.288-.476.366-.215.099-.653.079-.893.082l-2.194.006c-.441 0-.98-.053-1.404.063-.622.169-1.174.722-1.216 1.376a6.86 6.86 0 00-.01.731c.023.555.117 1.305-.354 1.712a.856.856 0 01-.37.199c-.33.073-.748.033-1.085.034l-2.236.01-.003-.59 2.114-.005-.04-6.422c-.1-.051-.444-.004-.57-.003l-.903-.02-5.427-.007-1.558-.02c-.177-.002-.412-.03-.583 0-.085.013-.146.085-.182.159a.558.558 0 00.002.44c-.151.032-.284.1-.43.148l-.025.031c-.04.045-.08.07-.132.1l.006-.684c.025-.294.277-.572.553-.66.248-.08.552-.053.81-.056l1.638.008 3.76-.013 1.793.002c.291-.003.596.01.886-.014.092-.008.214-.017.287-.08.06-.054.074-.084.088-.163.06-.335.024-.729.024-1.072l.003-2.253z"/><path fill="#FF9292" d="M7.117 14.726a.558.558 0 01-.002-.44c.036-.073.097-.145.182-.159.171-.029.406 0 .583 0l1.558.021 5.427.007.902.02c.127-.001.471-.048.571.003l.04 6.422-2.114.004c-.078-.317-.116-.613-.251-.915-.305-.678-.956-1.254-1.652-1.517-.727-.275-1.524-.274-2.233.054-.231-.215-.426-.476-.637-.71l-.72-.813c-.1-.108-.215-.202-.311-.312-.08-.09-.137-.197-.222-.282-.108-.107-.235-.201-.355-.294.022-.126.065-.263.067-.39.003-.198-.1-.341-.242-.472-.19-.177-.327-.24-.591-.227z"/><path d="M52.376 0H64v11.504l-11.594.015L52.376 0zM52.424 64c-.047-.364-.015-.773-.016-1.142l-.007-2.274.027-8.104L64 52.468V64H52.424zM0 11.495V0h11.62l.01 11.527L0 11.495zM10.022 52.457l1.602.01.05 11.533H0V52.468l10.022-.01z"/><path d="M43.343 12.971l3.741-.005.832.004c.14 0 .319.024.453-.01l-.008-6.967c-.312.053-.574.086-.852-.102-.224-.152-.471-.403-.526-.675-.05-.249-.02-.552.124-.765.151-.222.413-.415.685-.448a1.17 1.17 0 01.864.24c.218.181.387.502.412.786.022.244-.036.45-.143.667a.755.755 0 00-.072.333l.004 1.506.006 3.137v4.28c.008.427-.037.89.03 1.31.009.063.009.193.034.244.026.053.116.132.157.177l.543.534 1.286 1.284c.252-.127.504-.237.775-.316l.047-.015c.29-.083.73-.1 1.021-.026.409.104.713.22 1.079.436l2.255-2.383c-.034-.17-.069-.32-.04-.494l.01-.053c.036-.21.127-.407.308-.529.179-.12.47-.152.68-.11.2.042.344.207.463.36.028.037.086.138.12.161.042.03 3.14-.006 3.494-.006l.015-.037c.087-.217.185-.396.41-.493.227-.098.448-.13.681-.035a.914.914 0 01.548.56c.075.208.021.442-.077.634-.087.173-.222.262-.403.316-.21.063-.483.063-.679-.043a1.205 1.205 0 01-.312-.26c-.025-.028-.106-.139-.135-.15-.168-.07-3.251-.037-3.535.011l-.02.034c-.124.204-.331.431-.574.48a1.067 1.067 0 01-.376 0c-.036-.006-.191-.048-.216-.041-.013.003-2.114 2.294-2.305 2.496.193.29.342.574.431.912l6.83-.005.022-.038c.16-.263.397-.507.707-.58a.843.843 0 01.657.137c.265.184.36.403.405.713.03.197-.053.439-.17.596a.954.954 0 01-.607.358c-.226.03-.487-.07-.658-.216-.073-.063-.314-.45-.33-.454-.096-.029-.32.007-.43.003l-2.44-.02-3.965.001c-.002.193.01.406-.02.596-.081.522-.387 1.05-.763 1.417-.194.189-.405.316-.658.408-.044.016-.165.042-.196.067a.798.798 0 00-.008.07l-.004.78 7.985.005c.37-.007.715.012 1.01.266-.186.186-.346.319-.625.316-.05 0-.089-.011-.137-.023-.219-.055-.489-.025-.714-.025l-1.485.004-6.002.025.01 1.676 4.33.03c.08-.179.152-.341.292-.484.14-.143.292-.255.5-.254.237.002.426.107.587.279.118.126.16.249.207.412.237-.053.505-.025.747-.022l1.412.017c.069 0 .266.023.323 0 .042-.016.133-.14.178-.176a.678.678 0 01.773-.037.608.608 0 01.247.35c.03.171.01.331-.098.47-.102.132-.292.27-.459.296-.164.025-.298-.064-.42-.162-.083-.066-.184-.223-.267-.268-.046-.024-.335-.004-.405-.005-.694-.008-1.405.034-2.096-.01l-.023.054c-.092.203-.223.292-.428.365a.709.709 0 01-.57-.026c-.18-.09-.235-.243-.376-.34-.02-.012-4.085-.013-4.485-.01l.008 3.03.005.875c.002.156-.009.325.027.478.51.232.86.342 1.093.9l7.157-.022.016-.043c.088-.234.243-.461.477-.573.223-.107.432-.097.66-.008.207.08.357.238.438.444.083.209.076.4-.014.604-.093.212-.282.42-.506.492a.876.876 0 01-.676-.057c-.105-.055-.37-.297-.45-.29-.74.066-1.52.018-2.263.017l-3.808.022-.84.006c-.083 0-.186-.02-.257.025-.129.385-.36.688-.728.876-.112.057-.247.054-.37.056l-.023 7.34c.263.067.519.158.734.328.085.068.16.153.255.208l.443-.768c.113-.214.185-.45.334-.642.389-.023 3.792.014 3.83-.025.135-.138.271-.165.463-.162.161.003.266.088.367.206.066.077.135.18.128.285-.007.107-.105.2-.185.262-.138.106-.308.183-.485.148-.158-.03-.307-.151-.463-.166-.283-.025-.585-.005-.87-.006-.784-.002-1.577.024-2.359-.028-.316.437-.548.888-.78 1.373.091.193.207.374.285.573.217.555.272 1.159.19 1.748l6.096.038c.063-.318.096-.569.391-.76a.964.964 0 01.8-.129c.243.062.377.157.5.38.127.227.195.48.108.734-.092.266-.33.513-.586.625a.698.698 0 01-.583.013 1.017 1.017 0 01-.297-.22c-.032-.031-.08-.1-.115-.12-.047-.025-.248-.017-.315-.02l-1.963-.017-4.152-.029-.01.027c-.146.333-.417.6-.575.925.765.586 1.41 1.359 2.13 2.002.165-.167.296-.326.548-.332.25-.005.534.11.717.284a.83.83 0 01.171.236l.019.036a.758.758 0 01.006.527.827.827 0 01-.48.455c-.213.075-.48.095-.688-.006-.166-.08-.496-.404-.548-.59l-.01-.042c-.052-.145-.284-.333-.395-.45-.576-.605-1.26-1.187-1.769-1.846l-.06-.074c-.662.397-1.429.603-2.196.41a3.06 3.06 0 01-1.185-.63l-.003 1.5c.002.245.05.6-.034.833-.041.118-.145.209-.232.295-.279.09-.604.063-.894.064l-1.33.002h-3.662c-.742-.002-1.506.043-2.245-.004a1.69 1.69 0 01-.437-.081c-.091-.08-.106-.145-.142-.258-.106-.33-.258-.748-.21-1.095l-.055-.177c-.226-.075-.608-.033-.856-.035l-2.578.009c-.346.001-.699-.032-1.044-.009-.244.16-.445.39-.656.589-.33.312-.667.58-.934.952.028.058.05.07.11.092.189.068.473.04.674.044l2.475.017c.196.006.529-.02.702.059.198.09.369.298.472.486.108.196.125.366.128.586.114-.056.234-.124.361-.139.453-.052.915-.036 1.37-.038l2.158-.004 5.814.024.016 4.6-.011 1.377c-.003.247.01.51-.017.756-.007.059-.017.103-.06.146-.157.152-.954.08-1.2.076-.457-.053-.95-.014-1.411-.016-.173 0-.377.019-.544-.034-.08-.026-.15-.028-.234-.031l-.04.03c-.072-.057-.24-.03-.335-.03l-.047-.032c-.073 0-.137-.005-.203.032-.079.043-.13.03-.219.03-.103-.068-.241-.007-.36-.03a.357.357 0 00-.183 0l-.055.08c-.295-.058-.618-.008-.918-.003l-1.525-.014c-.102-.004-.288.008-.38-.022-.073-.023-.17-.11-.226-.16-.513-.453-.5-1.374-.51-2.003l-.035-.825-.403-.025a1.582 1.582 0 01-1.12-.606c-.181-.231-.228-.472-.277-.752a4.641 4.641 0 01-.036-1.489l-.175-.052c-.227-.068-.498-.06-.734-.068l-1.413-.012c-.523 0-1.144.04-1.616-.214-.11-.06-.232-.122-.323-.208-.247-.233-.394-.699-.488-1.02-.182.171-.394.316-.595.464-1.038.77-2.042 1.122-3.334 1.135l.032 1.504.359.159c.267.143.555.42.643.719a1.38 1.38 0 01-.138 1.055c-.184.314-.443.55-.8.64l-.047.013c-.044.077-.023.263-.024.356l.015 1.15c.013.758-.063 1.596.054 2.343l.128.026.074.015c.232.054.43.232.55.432.188.31.225.68.133 1.027-.09.335-.323.64-.625.813a1.28 1.28 0 01-1.04.107c-.453-.136-.647-.427-.855-.819l-14.18-.044c-.116.088-.23.163-.356.233-.13.072-.373.058-.514.012a.541.541 0 01-.277-.266c-.073-.15-.05-.285-.004-.438.09-.297.045-.66.049-.97l.002-2.094c-.001-1.26.055-2.54-.02-3.798-.12-.06-.255-.128-.333-.242-.086-.122-.11-.41-.08-.556.035-.17.28-.304.412-.394.07-.229.027-.595.026-.837-.002-.851-.066-1.748.008-2.594l.005-.056c-.049-.057-.112-.121-.136-.194-.035-.107-.053-.448.008-.549l.029-.035c.07-.091.126-.17.222-.237a.778.778 0 01.62-.108c.227.047.349.26.465.44.243.054.54.029.792.033l2.386.003 5.162.002 1.975-.026c-.21-.416-.569-.753-.883-1.092l-1.972-2.037-2.877-3.06-1.253-1.292c-.478.17-.944.457-1.4.684l-1.88.98-1.415.72-.957.54c.06.1.148.18.214.275.122.176.21.407.253.616l.01.056c.1.502.061.921-.177 1.375-.332.633-.842 1.082-1.534 1.28-.5.145-1.017.032-1.46-.22l-.04-.023-1.97 1.822.016.115a.644.644 0 01-.173.492.814.814 0 01-.413.216c-.616.135-1.298.075-1.925.074l-2.95-.008a1.926 1.926 0 01-.794.304l-.278-.083a.908.908 0 01-.5-.49c-.095-.21-.134-.448-.045-.668.077-.19.272-.414.465-.494l.041-.015a.967.967 0 01.943.156c.27.222.312.494.343.82.38.016 3.515.092 3.715.006a1.259 1.259 0 01-.03-.301c.004-.258.13-.483.314-.657a.888.888 0 01.676-.263c.123.007.3.06.377.16l.03.04c.25-.054.56-.429.742-.603l.995-.967a2.526 2.526 0 01-.528-.952l-1.64-.029-3.318-.014c-.218-.001-1.441-.056-1.566.003-.16.077-.282.243-.462.32-.218.095-.518.165-.745.061-.202-.093-.42-.308-.485-.526a.89.89 0 01.065-.651c.123-.221.344-.414.594-.47a.907.907 0 01.64.129c.233.154.348.355.407.619l.01.045 6.348.046c.045-.69.145-1.246.633-1.759-.314-.422-.69-.78-1.07-1.142-.259-.246-.55-.575-.91-.652l-.054-.01c-.5-.107-1.072-.07-1.585-.075l-2.941-.04-.115.028c-.18.057-.298.067-.484.058a.704.704 0 01-.226-.176c-.11-.135-.1-.224-.08-.388a.36.36 0 00.097-.052c.18-.134.428-.22.646-.11.139.07.153.132.329.148l.039.003.056-.012c.31-.04.678-.001.993 0 .912.003 1.842-.019 2.75.061.245.021.506.03.746.075.109.02.21.072.306.125.224.126.423.335.612.507l1.341 1.235c.268-.192.54-.296.852-.39l-.014-.607c.04-.768.972-1.158 1.568-1.431l.62-.3c.225-.106.475-.204.655-.38.438-.427.246-1.377.264-1.928.02-.671.324-1.014.786-1.454-.263-.63-.564-1.25-.695-1.927-.063-.328-.076-.677-.099-1.01l-1.23-.044c-.053.2-.11.37-.245.534a1.271 1.271 0 01-.904.458 1.032 1.032 0 01-.801-.277c-.198-.183-.384-.44-.393-.719v-.029l-.036-.032-3.64-.005-3.517-.03-.566-.004c-.019 0-.128-.008-.143 0-.18.09-.3.305-.507.396a1.01 1.01 0 01-.764-.01 1.032 1.032 0 01-.513-.561c-.069-.181-.032-.481.055-.652.11-.218.324-.42.56-.493.227-.07.534-.037.741.08.256.143.393.379.47.652l.014.048 7.722.055.225-.277c.368-.398.653-.52 1.186-.54.08-.51.035-1.078.035-1.594l-.002-2.972c-.225-.191-.487-.343-.736-.501l-1.16-.708c-.429-.251-.861-.535-1.308-.752l-.045-.022c-.178-.085-.433-.057-.63-.06l-1.477.005-1.58.003c-.212.006-.499.118-.7.056-.123-.037-.198-.168-.26-.27-.006-.078-.016-.154.014-.229a.5.5 0 01.275-.234l.032-.008a.57.57 0 01.39.03c.288.131.695.082 1.01.082l1.915.01c.362.002.792-.036 1.14.052.144.036.298.17.422.249l.703.428 1.957 1.146.011-2.029a2.966 2.966 0 01-1.73-.804c-.715-.704-.949-1.546-.958-2.527l-4.77-.03-1.3-.03c-.01-.001-.02-.008-.029-.003-.054.033-.115.193-.149.25a.883.883 0 01-.377.351.941.941 0 01-.715-.003.981.981 0 01-.504-.546c-.08-.221-.051-.53.054-.739a.974.974 0 01.567-.487c.204-.063.5-.036.687.063.241.127.393.35.473.605l.012.04c.133.042.318.02.46.02h1.03l2.344.011 2.296.007c.105-.072.225-.404.29-.527.18-.335.435-.618.677-.91-.256-.231-.465-.496-.694-.752l-1.347-1.527-.514.122c-.203-.089-.355-.22-.519-.365l-2.69.024c-.202.183-.403.343-.688.346-.253.002-.501-.137-.673-.315-.19-.195-.135-.664-.135-.925.114-.112.353-.364.518-.38.218-.021.507-.02.695.104.226.147.34.392.391.649l.007.034 2.432-.039c.044-.13.092-.257.107-.394.051-.031.092-.056.132-.1l.026-.032c.145-.048.278-.116.429-.149.264-.013.4.05.591.227.141.131.245.274.242.472-.002.127-.045.264-.067.39.12.093.247.187.355.294.085.085.143.192.222.282.096.11.211.204.311.312l.72.813c.21.234.406.495.637.71.709-.328 1.506-.329 2.233-.054.696.263 1.347.839 1.652 1.517.135.302.173.598.25.915l.004.59 2.236-.009c.337-.001.756.039 1.085-.034a.856.856 0 00.37-.2c.471-.406.377-1.156.353-1.711a6.86 6.86 0 01.011-.731c.042-.654.594-1.207 1.216-1.376.424-.116.963-.063 1.404-.063l2.194-.006c.24-.003.678.017.893-.082.17-.078.372-.211.476-.366.172-.259.218-.596.4-.864.105-.153.265-.277.404-.398l.669-.032c.09-.005.183-.025.264.022l.036.283c.025-.244 0-.512-.002-.758l-.022-8.519c-.113-.131-.246-.32-.406-.387-.135-.08-3.201-.028-3.675-.038-.059-.002-.102-.028-.157-.034-.136-.015-.285-.002-.422 0l-.032.03a2.698 2.698 0 01-.495.014l-.223-.013c-.092-.06-.33-.031-.445-.031h-1.18c-.05.048-.075.031-.14.031-.053-.052-.13-.031-.202-.031l-.722.002c-.146.005-.324.027-.468.006-.208-.031-.445-.009-.657-.009h-1.28c-.063.064-.466.032-.578.032-.062-.061-.31-.031-.406-.031l-.008-.047c.02-.04.009-.033.055-.055a.98.98 0 00.2-.121l.034-.027.031.03.031-.093c.058-.034.108-.027.174-.02.05.006.08-.02.126-.042.08 0 .274-.024.333.015l.026-.012c.123-.04.32-.009.45-.003l.024.015.055-.016h.11l.03.032c.075 0 .093-.011.157.03.06 0 .064.014.11-.03l.046.03.188-.007.054.055.04-.031.046.046.04-.038.023.038h.047l.03.032c.111 0 .227.008.337-.008l.03.023.032-.023.04.039.046-.031v-.047h.047l.02-.03c.044-.057.082-.074.152-.08.242-.02.49.012.734-.007l.579.008.046.03c.096 0 .234.022.313-.03.074 0 .165-.022.218.03l4.972-.05 1.05-.004c.058-.265.129-.49.381-.638a.78.78 0 01.585-.076c.21.06.36.221.461.41.05.095.079.198.104.302l1.588.003c.593-.002 1.294-.081 1.867.085.31.089.617.27.85.491.377.356.601.812.61 1.333l.023 1.47c.385.11.72.318.92.675.156.278.163.649.074.948-.104.351-.325.678-.655.85l-.324.148.011 2.506c.25.007.486.012.733.064.234.05.462.137.698.17l.024-.037c.315-.496 1.013-1.056 1.592-1.175.405-.083.833-.054 1.244-.052l1.624.002 3.11-.007 1.435.006c.19.017.365.017.554.001z"/><path d="M40.81 51.884l.053-.07c.14-.161.265-.152.46-.168l-.03.825-.49-.005.008-.582z"/><path fill="#76A3E4" d="M40.81 51.884l-.008.582c-.261-.014-.59-.005-.829-.126-.15-.076-.183-.215-.23-.364.364.055.711.14 1.04-.074l.028-.018z"/><path fill="#61E67B" d="M34.447 43.79l1.387.02-.442.47L34 44.25c.13-.172.29-.313.447-.459z"/><path fill="#76A3E4" d="M49.154 20.155l1.058.01c-.021.316-.01.608.02.921l-1.082.002.004-.933z"/><path fill="#61E67B" d="M57.692 25.648c.146-.137.24-.22.448-.206.21.013.448.159.575.324.032.042.052.09.075.137l.025.049c.006.135.015.332-.048.456-.102.198-.25.295-.458.364a.611.611 0 01-.48-.064c-.162-.091-.233-.21-.275-.387-.06-.253.001-.462.138-.673zM10.728 43.132c.143.014.266.03.393.101.15.085.31.267.345.439.041.195-.032.4-.137.562-.127.195-.29.237-.504.286a.888.888 0 01-.438-.12c-.15-.087-.218-.217-.257-.383-.044-.191-.047-.392.068-.56.132-.195.306-.284.53-.325zM33.595 25.134l1.185-.01-.004 1.35-1.177-.005-.004-1.335z"/><path fill="#76A3E4" d="M44.267 24.352l2.015-.01-.006 2.003-2.009-1.993z"/><path fill="#61E67B" d="M52.228 19.567c.175-.016.352-.021.518.045.257.102.5.36.597.618.075.2.032.414-.052.603-.136.308-.359.422-.653.536-.186.012-.334.014-.514-.049a.961.961 0 01-.565-.52c-.086-.205-.06-.456.025-.657.127-.301.35-.462.644-.576z"/><path fill="#779B75" d="M34.787 48.672l.046-.017c.232-.042.543-.004.782-.006l1.695.005c.339.001.697-.02 1.033.01.138.012.281.043.403.11.257.142.333.402.41.664l-2.164-.01c-.475-.004-1.031.036-1.495-.042l-.044-.009a.632.632 0 01-.21-.064c-.233-.13-.384-.392-.456-.641z"/><path fill="#76A3E4" d="M46.785 21.652h1.854l.01 2.105-1.838-.008-.026-2.096z"/><path fill="#779B75" d="M41.322 51.646l4.67.004c.035.232.09.565-.055.767a.201.201 0 01-.14.082l-4.504-.028.03-.825z"/><path fill="#61E67B" d="M52.031 42.068c.159-.016.375-.03.529.014l.034.01.083.027c.282.101.558.354.675.63.128.3.15.643.017.944-.184.415-.465.613-.88.77-.292.03-.61.02-.87-.134-.279-.165-.47-.49-.54-.798-.076-.324-.028-.6.15-.878.205-.318.427-.503.802-.585zM11.104 19.477c.258-.037.584-.043.825.066.289.13.548.34.656.649.128.37.045.775-.116 1.12-.152.326-.458.515-.783.633-.223.067-.555.018-.764-.07-.325-.136-.548-.399-.672-.723a1.208 1.208 0 01.01-.925c.176-.386.453-.606.844-.75z"/><path fill="#76A3E4" d="M49.157 21.619l.91.012c.115 0 .336-.03.433.025.068.277.264.504.464.7.434.422.9.59 1.5.585l.001.81-3.295-.003-.013-2.13zM46.813 24.343l1.84.002.011 4.716c-.177-.301-.386-.642-.61-.909-.362-.431-.81-.82-1.221-1.204l-.02-2.605z"/><path fill="#61E67B" d="M42.43 36.388l.655-.006c-.499.658-1.086 1.2-1.673 1.777l-2.13 2.159c-.324.349-2.815 2.832-2.954 2.892-.042.018-.174.007-.226.008l-.71.005c.587-.463 1.102-1.09 1.63-1.619l1.337-1.352c.403-.399.82-.77 1.176-1.21.287-.357.64-.698.963-1.024l1.345-1.315c.075-.068.232-.252.318-.288.055-.024.204-.02.269-.027z"/><path fill="#76A3E4" d="M41.599 21.646l4.712.014-.014 2.097-2.684-.036c-.195-.125-.373-.345-.539-.512L41.6 21.646z"/><path fill="#61E67B" d="M24.695 37.984c.104-.005.202.026.305.035l.606.027 1.168-.012c.485 0 .986.027 1.468-.02l.045-.004c.053.39.023.81.014 1.203l-.016 1.552-.047 3.905c-.011.459.019.937-.026 1.392l-.04.01c-.039-.03-.043-.031-.08-.07a.36.36 0 01-.09-.168c-.022-.128-.007-.286-.007-.417l-.002-.835-.002-4.004c.003-.204.039-.631-.062-.798-.077-.126-.266-.276-.413-.305-.094-.018-.217-.017-.296.042-.079.059-.155.163-.157.264-.003.12.134.208.21.29.067.073.093.14.106.238.025.186.006.388.004.576l-.023 1.085-.088 3.077-.053.044-.078-.034c-.157-.186-.07-3.71-.083-4.242-.003-.105.005-.296-.03-.395-.035-.101-.205-.271-.275-.355-.624-.75-1.35-1.41-2.058-2.08zM39.168 34.477l5.858.014c-.067.14-.279.31-.392.425-.202.205-.409.42-.627.608-.04.034-.144.122-.196.132-.113.022-.278.002-.395.003l-.986.007-.804-.013-2.477 2.525.02-3.701zM28.085 19.39l.072.006-.088 5.228-5.178-.025-.089-.017c.028-.134.678-.696.834-.846l2.179-2.127c.75-.73 1.467-1.549 2.27-2.218z"/><path fill="#FF9292" d="M14.641 35.998l2.944 3.047-.005.03-4.229 2.237c-.402.178-.759.443-1.177.588-.057-.025-.038-.01-.08-.055-.168-.183-.26-.235-.49-.326-.225-.088-.394-.088-.632-.082-.005-.195-.024-.41.045-.596.19-.514 1.101-.801 1.545-1.027.371-.19.808-.367 1.122-.645.484-.426.472-1.17.43-1.765-.017-.248-.065-.56.02-.799l.016-.042c.098-.266.274-.401.491-.565zM12.01 26.517l5.317.019c-.237.313-.525.577-.798.858l-.96.988c-.337.323-.68.602-.958.983l-.036.05c-.496.727-.815 1.556-.995 2.417l-1.183-.008c-.125-.324-.35-.527-.602-.75-.01-.436-.063-4.403.018-4.542l.196-.015z"/><path fill="#779B75" d="M31.79 29.482c.638-.046 1.208.157 1.7.558.472.384.77 1.005.823 1.611.064.738-.183 1.373-.66 1.929-.384.448-1.044.695-1.619.736-.646.002-1.234-.162-1.742-.577a2.38 2.38 0 01-.843-1.587 2.415 2.415 0 01.563-1.799c.47-.55 1.067-.813 1.777-.871z"/><path fill="#61E67B" d="M39.296 30.444l6.654.005c.213.313.411.723.45 1.106.09.912-.262 1.65-.831 2.328l-1.032-.016-5.328-.01.004-1.321c.627-.004 1.266.03 1.888-.052.024-.251.002-.505-.01-.756-.156-.09-.465-.053-.64-.051l-1.151-.002-.004-1.23zM19.022 36.454l2.964-.012c.61.484 1.216.99 1.775 1.533l1.095 1.134 1.339 1.375c.107.12.242.28.276.438.063.293.001.716-.005 1.02l-.07 2.46-.068-.017-.142-.105c-.245-.2-.462-.454-.685-.679l-1.94-2.051-2.755-2.937-1.735-1.856c-.066-.075-.175-.18-.187-.28l.138-.023z"/><path fill="#76A3E4" d="M50.817 24.327l1.654-.012-.033 6.636-.247.057c-.17.17-.559.575-.577.827l-.001.056c-.145.068-.483.03-.652.03l-1.682-.01-.1-7.572 1.638-.012zM37.6 17.502l5.245.01c.161.004.779-.009.864.037.08.044.167.187.236.256a.495.495 0 00.393.164c.196-.01.335-.217.46-.353.362.007.708-.04 1.015.19.324.245.419.509.473.897.09.65.026 1.377.026 2.04l-.004.32-.042.04-4.844-.002c-.078-.003-.293.008-.36-.023-.059-.027-.168-.162-.219-.211l-.827-.837-2.416-2.528zM44.406 16.616c-.074 0-.167-.007-.238.02-.153.057-.303.28-.457.287l-3.017.01c-1.241.009-2.522.06-3.76-.03-.215-.335-.51-.643-.785-.929-.379-.393-.75-.78-1.196-1.1-.216-.154-.464-.28-.695-.413l.243-.275c.218-.225.673-.567.981-.637.313-.072.74-.042 1.065-.044l2.131.01 3.382-.011.043.005.68.022-.05.7c-.008.119-.03.248.004.364.065.232.267.46.422.64l.507.571c.192.234.374.572.647.698l.085.061.008.05z"/><path fill="#76A3E4" d="M42.06 13.504c.343-.013.678.018 1.018.017.693-.004 1.43-.092 2.12-.017l3.132.01c.064.17.017.532.017.72l-.005 2c0 .089-.029.33 0 .407.064.172.42.458.556.593l.883.909c.27.264.557.504.807.79.006.008.019.014.018.023 0 .035-.064.148-.08.186l-.22.512c-.477.001-1.237-.108-1.581.268-.172.188-.134.916-.13 1.176l-1.764-.003c-.036-.543-.025-1.093-.02-1.637.002-.366.02-.738-.052-1.099l-.01-.05a1.583 1.583 0 00-.628-.932c-.149-.099-.332-.15-.496-.22-.161-.07-.315-.16-.472-.238a1.082 1.082 0 01-.102.16c-.19.022-.243-.192-.36-.314a.509.509 0 00-.285-.15l-.008-.05-.086-.061c-.272-.126-.454-.464-.646-.698l-.507-.572c-.155-.18-.357-.407-.422-.639-.033-.116-.012-.245-.004-.364l.05-.7-.68-.022-.043-.005z"/><path d="M42.06 13.504c.343-.013.678.018 1.018.017.693-.004 1.43-.092 2.12-.017l-.034.005c-.257.036-.525.02-.783.018l-1.073-.01.001.725c0 .085-.018.212 0 .29.02.087.133.221.188.296l.67.83.685.866c.102.129.185.279.3.395a1.082 1.082 0 01-.101.16c-.19.022-.243-.192-.36-.314a.509.509 0 00-.285-.15l-.008-.05-.086-.061c-.272-.126-.454-.464-.646-.698l-.507-.572c-.155-.18-.357-.407-.422-.639-.033-.116-.012-.245-.004-.364l.05-.7-.68-.022-.043-.005z"/><path fill="#76A3E4" d="M41.363 53.02l2.79.013c.582 0 1.224.054 1.798-.02a.592.592 0 00.344-.17c.287-.273.259-.65.26-1.015 0-.069-.008-.135-.02-.203l-.005-.037a.582.582 0 00-.252-.364.666.666 0 00-.303-.1c-.429-.05-.872-.016-1.303-.017l-3.065-.046.005-.041c.04-.394-.085-.739-.34-1.04a2.432 2.432 0 00-.444-.406l.042.004 7.85.033.033 5.95h-1.996c-.245 0-.57-.04-.806 0-.315-.054-.672-.011-.991-.014l-2.84-.027c-.09-.004-.319.008-.39-.03-.105-.055-.227-.222-.309-.311l-.058-2.159z"/><path fill="#779B75" d="M27.32 5.983c.61-.06 1.255-.02 1.87-.016.418.002.881-.034 1.292.027.141.022.276.078.4.147.343.19.745.54.847.934.042.165.022.375.023.546l-.02 1.168c0 .01.004.022-.002.03-.015.02-.125.06-.153.075-.303.157-.485.287-.656.59a1.297 1.297 0 00-.124 1.044c.162.52.528.758.99.989.03.266.002.557.003.825l-.004 1.618c-.747.011-1.427.202-2.11.498-1.16.593-1.95 1.622-2.866 2.514-.04-.344-.02-.704-.023-1.05l.008-2.318.005-4.2-.015-2.763c.002-.106-.002-.244.055-.335.205-.033.277-.25.48-.323z"/><path fill="#61E67B" d="M32.234 16.766c.34.111.724.18 1.02.388.672.47 1.17 1.23 1.746 1.815l4.65 4.82 1.936 1.97.482.542c.056.067.123.128.138.215l-.097.013-6.49.007.002-2.407h-3.402l.015-7.363z"/><path fill="#FF9292" d="M14.698 47.564l10.594.031.021 4.068h-1.211l-.608.006c-.087-.2-.179-.35-.377-.456-.152-.082-.333-.071-.494-.02-.208.066-.35.263-.443.45l-.016.031-7.77.006-.03-.238c-.037-.171-.224-.264-.36-.353l-.027-1.68c-.004-.466-.052-1.004.039-1.463.083.019.18.03.265.014.187-.032.32-.252.417-.396z"/><path fill="#76A3E4" d="M49.28 32.47l2.373.021.198.35a.871.871 0 00.572.386l.033.007-.052 7.269c-.48-.013-.865.01-1.312.213a2.82 2.82 0 00-1.517 1.636l-.01.029-1.665-.806-4.033-2.143 1.05-1.098c.979-1.014 1.984-2.058 3.066-2.96.231-.194.382-.417.545-.668.465-.713.677-1.39.752-2.235z"/><path fill="#61E67B" d="M35.655 32.497l2.963.019c-.044.556-.002 1.134-.004 1.694l-.02 3.27c0 .525.05 1.106-.008 1.626-.01.089-.03.18-.089.25-.26.314-.641.578-.94.86l-2.014 2.002c-.278.287-.58.555-.832.867l-.033.042c-.338.067-.74.033-1.086.036l.032-5.397c-.142-.086-.4-.045-.561-.025l.007 2.949.06 4.159 1.432-.004c-.443.548-1.026 1.17-1.636 1.53-.241.142-.506.24-.758.36l.002-7.454.016-2.623c.003-.33-.037-.693 0-1.02.404-.002.915-.174 1.28-.344a3.854 3.854 0 001.684-1.554c.216-.381.355-.832.505-1.243z"/><path fill="#76A3E4" d="M41.846 46.66c.182-.146.287-.351.377-.563-.091-.137-.188-.316-.317-.419a.609.609 0 00-.478-.123.653.653 0 00-.473.264l-.02.026-3.596.053-.063.005c.201-.219.442-.383.662-.58l.963-.93 2.949-2.862 1.066-1.074c.187-.18.371-.376.588-.52.665.231 1.28.569 1.903.89l2.557 1.368c.476.265.964.588 1.462.799l.048.02c-.004.17-.007.334.013.503.06.487.213.938.418 1.383l-.058 2.64-7.943.052c-.002-.31-.08-.628-.058-.931z"/><path fill="#779B75" d="M14.267 21.194l2.236-.009c.337-.001.756.039 1.085-.034a.856.856 0 00.37-.2c.471-.406.377-1.156.353-1.711a6.86 6.86 0 01.011-.731c.042-.654.594-1.207 1.216-1.376.424-.116.963-.063 1.404-.063l2.194-.006c.24-.003.678.017.893-.082.17-.078.372-.211.476-.366.172-.259.218-.596.4-.864.105-.153.265-.277.404-.398l.669-.032c.09-.005.183-.025.264.022l.036.283-.009 1.449c0 .078.029.348 0 .406-.06.115-.22.254-.31.35l-.849.855-1.898 1.912-3.579 3.634-1.076 1.102c-.244.246-.479.5-.755.71l-.045-.016c-.263-.09-.514-.083-.788-.087l-1.017-.004c-.372.001-4.071.05-4.183-.018l.013-2.233.033-.007c.825-.173 1.509-.606 1.962-1.325.226-.359.373-.756.49-1.16z"/><path fill="#61E67B" d="M17.285 32.483l10.958-.023c.108.628.344 1.309.76 1.797.693.812 1.573 1.279 2.636 1.361l-.03 11.295a3.66 3.66 0 01-2.704-.212l-.022-1.595.023-7.917-1.49-.022-2.636.006h-.58c-.073 0-.184.013-.252-.019l-.046-.03c-.447-.284-.837-.748-1.216-1.118-.11-.106-.265-.295-.4-.36-.058-.03-.165-.016-.23-.015h-.592l-3.403-.007c-.115-.083-.214-.211-.304-.321a3.465 3.465 0 01-.66-1.213l4.19-.048.025-.886-4.513-.029-.006-.626.492-.018zM31.518 16.823l.123-.007c.055.174.02.434.018.62l-.005 1.438.009 4.142.023 2.396.924.002-.02 1.989 10.656-.04c.25.197.474.477.695.706l1.516 1.625-6.834-.004-.028 2.001h-2.963c-.012-.255-.074-.5-.13-.748-.19-.856-.892-1.69-1.62-2.15-.802-.508-1.891-.745-2.825-.529-.72.167-1.243.477-1.778.983-.665.628-1.038 1.592-1.07 2.493l-10.796-.016-.486-.006.132-.807c.021-.118.038-.279.094-.383.104-.195.323-.391.478-.548l.94-.945 1.563-1.631 10.042.038.015-4.19c-.002-.773.058-1.601-.04-2.367l-.556-.037-.04 5.748-8.667-.006c.288-.406.678-.748 1.036-1.094a.465.465 0 01.267-.14c.167-.025.357.005.528.01l.957.01 5.138.029.02-6.33 1.212.017c.22.007.653.084.848-.016a.322.322 0 00.164-.224c.03-.152-.037-.407-.13-.53-.187-.053-.405-.034-.6-.035l-1.14.012c.24-.297.522-.528.811-.773.175-.15.356-.322.56-.429.29-.15.64-.22.96-.274z"/><path d="M26.123 28.194c.238-.025.49-.022.716.068.317.127.592.403.716.722.122.315.112.646-.021.953-.183.42-.486.609-.893.773-.18.024-.428.036-.603-.01a1.37 1.37 0 01-.808-.636 1.243 1.243 0 01-.095-.951l.017-.05c.03-.092.064-.178.11-.263.198-.367.476-.494.86-.606z"/><defs><linearGradient id="prefix__c" gradientUnits="userSpaceOnUse" x1="216.184" y1="903.087" x2="483.904" y2="845.129"><stop offset="0" stop-color="#FF9292"/><stop offset="1" stop-color="#8F8A8A"/></linearGradient></defs><path fill="url(#prefix__c)" transform="scale(.0625)" d="M413.208 762.571c13.244 12.783 25.407 28.564 43.079 35.212 4.352 1.638 8.953 2.851 13.498 3.815 2.133.452 4.681.546 6.66 1.408l.054 24.75c-4.465 1.903-7.542 3.646-10.542 7.522-3.128 4.041-4.903 9.251-4.144 14.364l.139.858.457 2.625c1.783 7.514 7.841 12.135 14.08 15.882l.274 58.775c-2.618.78-5.039 1.594-7.372 3.074-5.675 3.6-8.727 9.488-10.049 15.922l-.127.651-162.465-.715-40.281.14c-7.837.027-16.221.645-23.969-.464-2.561-2.313-5.261-2.315-8.537-2.649l-.261-73.383.164-23.999c.036-1.53-.323-4.605.154-5.943.546-1.532 3.112-3.595 4.268-4.764 11.513 1.041 23.633.22 35.217.295l70.491.401 17.581.095c1.153.01 3.706-.324 4.626.043 2.796 1.116 4.11 3.101 7.435 3.412 4.427.415 6.976-.657 10.305-3.521.936-.805 34.831-.474 38.969-.8l.296-73.006z"/></svg>