<svg xmlns="http://www.w3.org/2000/svg" xmlns:xlink="http://www.w3.org/1999/xlink" width="512" height="512">
	<path fill="#49de80" d="M259.911 243.581C246.887 245.245 234.819 239.026 229.89 226.581C227.662 220.956 227.51 215.833 227.504 209.852L227.466 58.9935C227.467 55.334 227.242 51.5175 227.601 47.8779C228.846 35.2299 239.672 25.2353 251.987 23.5927C265.969 20.6992 283.778 34.2525 284.651 49.3988C284.778 51.5946 284.596 53.8483 284.56 56.0503L284.5 214.221C284.464 230.1 276.043 241.248 259.911 243.581Z"/>
	<path fill="#49de80" d="M215.271 139.707C212.463 137.924 209.4 136.552 206.485 135.012L153.448 101.823L140.163 93.9261C138.882 93.143 137.359 92.5343 136.272 91.5133L136.279 48.7954C140.365 50.8471 144.22 53.5347 148.045 56.0856L211.331 97.1431C212.457 97.9303 213.928 98.701 214.855 99.6867C215.598 100.476 215.273 135.415 215.271 139.707Z"/>
	<path fill="#49de80" d="M297.625 139.679L297.2 139.484C296.765 137.997 296.964 136.134 296.96 134.584L296.955 124.735C296.956 118.549 295.862 104.447 297.43 99.1065C300.364 96.0875 304.989 93.7667 308.55 91.4778L358.861 59.41C364.288 55.9368 369.901 51.5714 375.871 49.125L375.89 81.9673C375.881 89.7016 377.967 89.9232 372.214 93.6912L321.531 125.512C315.429 129.371 304.458 138.263 297.625 139.679Z"/>
	<path fill="#49de80" d="M429.152 303.656L462.999 324.476C481.836 337.781 473.426 369.379 450.289 372.954C437.359 374.952 419.956 360.508 409.624 354.11L314.744 296.08C307.719 292.159 297.677 286.804 296.44 277.968L296.385 277.511C296.098 275.286 296.208 273.001 296.216 270.76L296.263 197.936C296.243 182.808 293.38 185.57 306.895 177.115L417.192 107.313C425.784 102.073 438.329 91.7923 448.387 90.5916C457.64 89.9623 470.091 96.7988 470.835 107.008C471.375 114.429 471.03 122.064 471.02 129.511L470.992 135.114C470.847 138.85 465.236 139.909 461.518 142.191L364.206 203.299C349.206 212.689 343.648 212.522 343.681 231.943C343.691 237.954 341.919 249.94 349.333 252.014L349.657 252.103C355.41 253.817 364.388 246.119 368.985 243.229L460.796 185.642C463.942 183.505 467.23 180.872 470.71 179.32C471.367 183.661 471.007 188.424 471.004 192.816L471.025 225.314C471.031 229.214 471.028 228.417 467.75 230.255L421.001 259.397C415.964 262.667 410.073 266.136 407.671 271.948L407.498 272.375C406.175 275.518 405.8 285.266 407.101 288.475L407.223 288.75C407.925 290.396 409.555 291.428 410.988 292.409L429.152 303.656Z"/>
	<path fill="#49de80" d="M78.8204 305.744L92.6019 297.31C102.187 291.435 105.095 291.481 105.421 279.319C105.801 265.179 90.614 259.068 80.395 252.652L43.3246 228.989C40.828 227.423 40.8587 227.755 40.8572 224.841L40.8296 192.062C40.8253 187.912 40.5009 183.478 40.9245 179.358C47.1149 182.394 52.7854 187.073 58.6386 190.77L148.75 246.934C151.581 248.709 155.068 251.424 158.369 252.038L158.7 252.094C159.453 252.231 160.017 252.223 160.779 252.093L161.125 252.031C166.576 251.087 167.487 247.442 167.839 242.494L168.26 230.241C168.374 214.333 165.339 214.723 152.356 206.842L44.6691 138.631C42.0508 136.835 40.9161 136.718 40.885 133.45L40.8073 114.778C40.8004 112.055 40.4944 109.016 41.1211 106.362L41.2394 105.875C43.3249 97.0795 50.6125 91.9881 59.3936 90.838C61.4647 90.6553 63.7707 90.6122 65.7993 91.0983L66.25 91.213C70.3656 92.2365 74.0835 94.5344 77.7045 96.6723L192.676 169.224C197.322 172.143 212.653 180.731 215.756 184.536L215.905 264.346C215.917 289.193 212.204 286.978 191.063 299.748L85.3995 365.006C81.5015 367.311 77.61 369.902 73.4135 371.625C46.6469 382.616 25.1215 344.391 47.9219 325.333C52.0035 321.922 56.9382 319.459 61.447 316.65L78.8204 305.744Z"/>
	<path fill="#49de80" d="M256.554 485.605C243.97 486.742 230.406 475.645 230.184 462.726L230.191 416.37C230.194 410.056 230.606 403.445 230.095 397.159C229.624 391.362 224.769 383.62 217.952 385.689C214.36 386.779 210.843 389.134 207.589 391.017L144.706 430.551C135.213 437.086 137.2 434.713 137.195 425.114L137.201 387.188C137.2 383.323 136.885 379.118 137.49 375.302C142.634 370.912 148.724 367.32 154.43 363.708L240.575 310.187C245.785 307.08 251.296 304.141 256.262 300.665C258.183 302.33 260.792 303.68 262.937 305.07L367.279 369.889C368.97 370.94 373.948 373.229 374.856 374.719L374.845 426.404C374.934 435.686 376.362 436.057 368.52 430.625L305.965 391.438C298.218 386.953 287.021 379.538 282.699 393.413C281.26 398.032 281.973 404.012 281.977 408.828L282.055 458.989C282.065 461.871 282.26 464.841 281.574 467.66C278.889 478.693 267.052 484.814 256.554 485.605Z"/>
</svg>
